<svg height="512pt" viewBox="0 0 512 512" width="512pt" xmlns="http://www.w3.org/2000/svg"><path d="m377 0h-242c-74.4375 0-135 60.5625-135 135v242c0 74.4375 60.5625 135 135 135h242c74.4375 0 135-60.5625 135-135v-242c0-74.4375-60.5625-135-135-135zm105 377c0 57.898438-47.101562 105-105 105h-242c-57.898438 0-105-47.101562-105-105v-242c0-57.898438 47.101562-105 105-105h242c57.898438 0 105 47.101562 105 105zm0 0"/><path d="m332 90h-152c-49.625 0-90 40.375-90 90v152c0 49.625 40.375 90 90 90h152c49.625 0 90-40.375 90-90v-152c0-49.625-40.375-90-90-90zm60 242c0 33.085938-26.914062 60-60 60h-152c-33.085938 0-60-26.914062-60-60v-152c0-33.085938 26.914062-60 60-60h152c33.085938 0 60 26.914062 60 60zm0 0"/><path d="m256 181c-41.355469 0-75 33.644531-75 75s33.644531 75 75 75 75-33.644531 75-75-33.644531-75-75-75zm0 120c-24.8125 0-45-20.1875-45-45s20.1875-45 45-45 45 20.1875 45 45-20.1875 45-45 45zm0 0"/><path d="m357 170c0 8.285156-6.714844 15-15 15s-15-6.714844-15-15 6.714844-15 15-15 15 6.714844 15 15zm0 0"/></svg>